<?xml version="1.0" encoding="utf-8"?>
<!-- Generator: Adobe Illustrator 24.1.2, SVG Export Plug-In . SVG Version: 6.00 Build 0)  -->
<svg version="1.1" id="Layer_1" xmlns="http://www.w3.org/2000/svg" xmlns:xlink="http://www.w3.org/1999/xlink" x="0px" y="0px"
	 viewBox="0 0 288 288" style="enable-background:new 0 0 288 288;" xml:space="preserve">
<style type="text/css">
	.st0{fill:#FFFFFF;}
	.st1{fill:#F2F2F2;}
</style>
<polygon points="276.06,0 205.56,69.99 0,69.99 0,0 "/>
<polygon points="288,11.45 288,69.99 229.86,69.99 "/>
<polygon class="st0" points="288,0 288,11.45 229.86,69.99 205.56,69.99 276.06,0 "/>
<polygon points="288,145.01 288,214.99 85.85,214.99 155.35,145.01 "/>
<polygon points="129.99,145.01 59.5,214.99 0,214.99 0,145.01 "/>
<polygon class="st0" points="155.35,145.01 85.85,214.99 59.5,214.99 129.99,145.01 "/>
<polygon class="st1" points="194.48,80.99 141.08,134 0.3,134 0.3,80.99 "/>
<polygon class="st1" points="288.3,80.99 288.3,134 166.29,134 218.94,80.99 "/>
<polygon class="st1" points="218.94,80.99 166.29,134 141.08,134 194.48,80.99 "/>
<polygon class="st1" points="288,223.45 288,278.88 22.4,278.88 77.45,223.45 "/>
<polygon class="st1" points="50.98,223.45 0,274.06 0,223.45 "/>
<polygon class="st1" points="77.45,223.45 22.4,278.88 0,278.88 0,274.06 50.98,223.45 "/>
</svg>
